<?xml version="1.0" encoding="UTF-8"?>
<svg id="_레이어_1" data-name="레이어 1" xmlns="http://www.w3.org/2000/svg" viewBox="0 0 529.89 486.7">
  <defs>
    <style>
      .cls-1 {
        fill: #0a67af;
      }

      .cls-2 {
        fill: #fec115;
      }
    </style>
  </defs>
  <path class="cls-2" d="M147.11,435.94l-12.72,6.99L23.86,239.04l10.12-6.06,105.91-66.5V41.1c0-.11-.18-6.82-.07-6.82h228.69l-1.52,133.44,113.87,70.67-113.51,204.31-112.08-67.28M165.77,60.16v121.5c-11.6,7.52-23.66,14.34-35.37,21.67-3.31,2.07-6.8,4.45-10.32,6.64-19.73,12.3-42.11,26.36-62.04,38.34,3.53,3.53,4.11,6.83,6.21,9.75,23.97-14.21,47.78-28.7,71.69-43,3.15-1.88,6.16-3.3,9.15-5.08,11.07-6.58,21.97-13.48,33.2-19.8l.5-130.02h-13.01ZM183.77,194.16l-116.87,69.48,68.61,128.08,119.76-67.52,112.49,66.96,69.93-128.35c-37.52-23.77-76.9-44.7-113.92-69.15V60.16h-138.5M341.77,60.16h-12v130.5l109.31,65.73c3.42,2.66,5.24-10.28,5.24-10.28l-102.54-63.46V60.16ZM140.46,397.94s2.65,9.98,4.29,9.2l110.52-62.01,103.48,62.02c.46-3.36,5.27-9.24,5.27-9.24l-108.73-64.67"/>
  <g>
    <path class="cls-1" d="M323.77,60.16v133.5c37.02,24.46,76.4,45.39,113.92,69.15l-69.93,128.35-112.49-66.96-119.76,67.52-68.61-128.08,116.87-69.48V60.16M296.77,223.17v-59.01h15v-18h-46.38v-19h-20.62v19h-49v18h18v59.04l-1-.04h-37v96h26v-79h105v79h26M332.77,223.16,290.77,252.16h-71v49h71v-49Z"/>
    <path class="cls-1" d="M165.77,60.16h13.01l-.5,130.02c-38.16,22.34-76.05,45.19-114.04,67.88-2.1-2.92-6.21-9.75-6.21-9.75,0,0,70.82-44.43,107.72-66.65V60.16Z"/>
    <polygon class="cls-1" points="341.77 60.16 341.77 182.66 446.67 247.57 440.78 257.41 329.77 190.66 329.77 60.16 341.77 60.16"/>
    <path class="cls-1" d="M255.29,333.24l108.73,64.67-5.27,9.24-103.48-62.02-111.15,62.36-5.13-9.24"/>
    <g>
      <path class="cls-2" d="M213.77,223.16v-59h-18v-18h49v-19h20.61v19h46.39v18h-15v59.01M332.77,223.16v96h-26v-79h-105v79h-26v-96M276.77,164.16h-42.5l-.5,9h43v-9ZM276.77,185.16h-42.5s.45,9.67-.5,12h43v-12ZM233.77,223.16h43c-.33-2.44-1.5-15-1.5-15h-41"/>
      <path class="cls-2" d="M290.77,252.16v49h-71v-49h71ZM234.77,268.66s.75,11.85,0,16.5h39.5c.35,0,1.31-2.26,1.31-2.26l-1.39-14.85c-1.77-1.26-27.85-1.09-31.98-.92-1.44.06-7.44,1.53-7.44,1.53Z"/>
      <path class="cls-1" d="M233.36,208.16h43.41v15h-43.42"/>
      <polygon class="cls-1" points="276.77 185.16 276.77 197.16 233.38 197.16 233.36 185.16 276.77 185.16"/>
      <rect class="cls-1" x="233.36" y="164.16" width="43.41" height="9"/>
      <path class="cls-1" d="M234.77,267.09l40.87-.08-.07,15.89v2.26h-40.81"/>
    </g>
  </g>
</svg>